<?xml version="1.0" encoding="iso-8859-1"?>
<!-- Generator: Adobe Illustrator 19.0.0, SVG Export Plug-In . SVG Version: 6.00 Build 0)  -->
<svg version="1.1" id="Layer_1" xmlns="http://www.w3.org/2000/svg" xmlns:xlink="http://www.w3.org/1999/xlink" x="0px" y="0px"
	 viewBox="0 0 512 512" style="enable-background:new 0 0 512 512;" xml:space="preserve">
<circle style="fill:#D7F3FF;" cx="256.003" cy="256.004" r="249.99"/>
<path style="fill:#C4B69D;" d="M478.48,254.051c7.444-3.68,14.852-7.793,22.211-12.338l4.678-3.247
	c0.409,5.796,0.613,11.641,0.613,17.533c0,17.618-1.828,34.814-5.291,51.398c-30.918,19.109-62.738,30.425-94.366,35.8v-65.684
	c7.336-1.251,14.683-2.814,22.019-4.726C445.132,268.433,461.896,262.276,478.48,254.051z"/>
<path style="fill:#F9EBCF;" d="M406.325,277.513v65.684c-29.98,5.111-59.792,4.894-88.509,0.962v-65.684v-43.798h22.127h22.127
	h22.127h22.127L406.325,277.513L406.325,277.513z"/>
<path style="fill:#C4B69D;" d="M317.816,278.475v65.684c-42.92-5.893-83.386-20.107-118.333-37.328
	C116.506,265.944,6.218,266.088,6.218,266.088c-0.132-3.343-0.204-6.71-0.204-10.09c0-19.073,2.141-37.652,6.181-55.499
	c4.726,0.132,12.086,0.421,21.382,1.058c8.274,0.577,18.087,1.443,28.982,2.73c3.451,0.409,7.023,0.866,10.679,1.359
	c5.893,0.806,12.014,1.732,18.315,2.79c9.344,1.587,19.073,3.475,28.994,5.748c9.548,2.177,19.277,4.702,28.994,7.636
	c9.729,2.922,19.446,6.253,28.982,10.041c7.119,2.838,14.13,5.917,20.961,9.284c2.646,1.299,5.327,2.586,8.033,3.848
	c9.32,4.377,19.001,8.502,28.994,12.302c9.404,3.584,19.085,6.879,28.982,9.801c9.476,2.814,19.145,5.267,28.994,7.324
	C302.171,276.034,309.951,277.392,317.816,278.475z"/>
<path style="fill:#9AD14B;" d="M454.392,408.1c-45.686,59.515-117.551,97.889-198.388,97.889c-45.012,0-87.246-11.893-123.72-32.71
	C264.158,359.48,454.392,408.1,454.392,408.1z"/>
<path style="fill:#87AA39;" d="M500.691,307.397c-7.793,37.292-23.895,71.541-46.299,100.703c0,0-190.234-48.62-322.108,65.179
	C59.589,431.79,9.742,354.898,6.218,266.088c0,0,110.288-0.144,193.265,40.743c34.947,17.221,75.413,31.435,118.333,37.328
	c28.717,3.932,58.529,4.149,88.509-0.962C437.953,337.822,469.773,326.505,500.691,307.397z"/>
<g>
	<path style="fill:#666666;" d="M339.944,234.677h-22.127v43.798c-7.865-1.082-15.645-2.441-23.33-4.053
		c-9.849-2.056-19.518-4.51-28.994-7.324c-9.897-2.922-19.578-6.217-28.982-9.801c-9.993-3.8-19.674-7.925-28.994-12.302
		c-2.706-1.263-5.388-2.549-8.033-3.848c-6.831-3.367-13.842-6.446-20.961-9.284c-9.536-3.788-19.253-7.119-28.982-10.041
		c-9.717-2.934-19.446-5.46-28.994-7.636c-9.921-2.273-19.65-4.161-28.994-5.748v-12.146l94.618-48.355l145.595-74.403
		l153.857,83.518h0.012c10.895,25.254,17.75,52.661,19.734,81.414l-4.678,3.247c-7.36,4.546-14.768,8.658-22.211,12.338
		c-16.583,8.226-33.347,14.383-50.135,18.736c-7.336,1.912-14.683,3.475-22.019,4.726v-42.836h-22.127h-22.127L339.944,234.677
		L339.944,234.677z"/>
	<path style="fill:#666666;" d="M91.553,196.291l-18.315,9.356c-3.656-0.493-7.227-0.95-10.679-1.359
		c-10.895-1.287-20.708-2.153-28.982-2.73c-9.296-0.637-16.656-0.926-21.382-1.058c9.873-43.533,31.11-82.761,60.417-114.388
		l0.012,0.012l113.547,61.812L91.553,196.291z"/>
</g>
<g>
	<path style="fill:#333333;" d="M256.001,0.001C114.842,0.001,0,114.842,0,256s114.842,255.999,256.001,255.999S512,397.158,512,256
		S397.159,0.001,256.001,0.001z M294.486,252.885c-3.322,0-6.013,2.693-6.013,6.013v8.056c-5.65-1.302-11.307-2.762-16.968-4.361
		v-11.019c0-3.32-2.691-6.013-6.013-6.013s-6.013,2.693-6.013,6.013v7.417c-5.651-1.8-11.303-3.757-16.956-5.847v-11.371
		c0-3.32-2.691-6.013-6.013-6.013s-6.013,2.693-6.013,6.013v6.716c-5.662-2.301-11.317-4.756-16.968-7.343v-11.676
		c0-3.32-2.691-6.013-6.013-6.013c-3.322,0-6.013,2.693-6.013,6.013v5.974c-5.555-2.719-11.224-5.259-16.967-7.63v-11.476
		c0-3.32-2.691-6.013-6.013-6.013s-6.013,2.693-6.013,6.013v6.792c-5.62-2.066-11.283-3.985-16.957-5.765v-11.08
		c0-3.32-2.691-6.013-6.013-6.013c-3.321,0-6.013,2.693-6.013,6.013v7.511c-5.682-1.593-11.349-3.057-16.967-4.4V198.66
		c0-3.32-2.691-6.013-6.013-6.013s-6.013,2.693-6.013,6.013v8.021c-5.749-1.223-11.418-2.323-16.968-3.315v-3.398L331.683,80.329
		l149.158,80.963c9.784,23.14,16.082,48.096,18.265,74.203l-1.71,1.187c-4.246,2.622-8.551,5.095-12.902,7.455v-1.642
		c0-3.32-2.691-6.013-6.013-6.013c-3.322,0-6.013,2.693-6.013,6.013v7.769c-4.563,2.178-9.17,4.233-13.83,6.131v-3.076
		c0-3.32-2.691-6.013-6.013-6.013s-6.013,2.693-6.013,6.013v7.618c-4.051,1.417-8.138,2.725-12.253,3.934v-3.735
		c0-3.32-2.691-6.013-6.013-6.013c-3.322,0-6.013,2.693-6.013,6.013v6.947c-3.313,0.799-6.644,1.533-9.995,2.199v-35.603V221.45
		c0-3.32-2.691-6.013-6.013-6.013c-3.322,0-6.013,2.693-6.013,6.013v7.215h-10.102v-7.215c0-3.32-2.691-6.013-6.013-6.013
		c-3.321,0-6.013,2.693-6.013,6.013v7.215h-10.1v-7.215c0-3.32-2.691-6.013-6.013-6.013c-3.322,0-6.013,2.693-6.013,6.013v7.215
		h-10.102v-7.215c0-3.32-2.691-6.013-6.013-6.013c-3.321,0-6.013,2.693-6.013,6.013v7.215h-10.1v-7.215
		c0-3.32-2.691-6.013-6.013-6.013c-3.321,0-6.013,2.693-6.013,6.013v13.228v36.825c-3.763-0.596-7.532-1.277-11.304-2.007v-10.598
		C300.499,255.577,297.808,252.885,294.486,252.885z M62.559,182.967c-3.321,0-6.013,2.693-6.013,6.013v8.565
		c-6.065-0.648-11.742-1.162-16.96-1.573v-6.992c0-3.32-2.691-6.013-6.013-6.013s-6.013,2.693-6.013,6.013v6.169
		c-2.812-0.162-5.404-0.292-7.747-0.394c9.877-38.065,28.745-72.539,54.179-101.035l99.295,54.047l-78.477,40.104
		c-0.939-0.608-2.055-0.97-3.258-0.97c-3.211,0-5.811,2.524-5.98,5.692l-13.368,6.832c-1.221-0.162-2.434-0.321-3.633-0.473v-9.971
		C68.572,185.659,65.879,182.967,62.559,182.967z M323.829,240.69h76.483v97.34c-26.437,3.961-52.218,3.685-76.483,0.752V240.69z
		 M412.338,282.529c30.794-5.838,60.196-17.027,87.537-33.306c0.063,2.254,0.099,4.512,0.099,6.779
		c0,16.295-1.62,32.218-4.682,47.627c-27.579,16.675-55.544,26.883-82.954,32.32L412.338,282.529L412.338,282.529z M256.001,12.026
		c93.721,0,175.253,53.128,216.102,130.84L334.634,68.249c-1.743-0.946-3.839-0.972-5.604-0.07l-142.767,72.956L82.499,84.657
		C126.759,39.844,188.189,12.026,256.001,12.026z M17.038,206.677c30.812,1.188,113.948,7.427,179.788,39.864
		c38.195,18.823,76.847,31.287,114.978,37.12v53.443c-44.168-7.025-82.579-22.321-109.662-35.666
		c-73.323-36.13-165.864-40.707-190.063-41.281c-0.023-1.384-0.053-2.768-0.053-4.158C12.026,239.107,13.754,222.612,17.038,206.677
		z M12.578,272.226c24.469,0.729,114.707,5.734,184.247,39.999c37.756,18.604,96.789,40.845,163.186,40.844
		c42.063-0.001,87.084-8.94,131.511-33.375c-8.081,29.855-21.691,57.459-39.675,81.632c-12.887-2.877-54.981-11.077-109.249-9.321
		c-37.732,1.218-73.447,7.053-106.154,17.342c-39.528,12.435-74.72,31.457-104.702,56.532
		C64.508,425.922,18.014,354.599,12.578,272.226z M256.001,499.975c-40.751,0-79.193-10.057-112.997-27.799
		c27.937-22.578,60.466-39.824,96.848-51.294c31.616-9.968,66.197-15.635,102.781-16.846c46.206-1.531,84.074,4.535,100.892,7.856
		C398.736,465.678,331.301,499.975,256.001,499.975z"/>
	<path style="fill:#333333;" d="M339.927,250.912c-3.321,0-6.013,2.693-6.013,6.013v7.817c0,3.32,2.691,6.013,6.013,6.013
		c3.322,0,6.013-2.693,6.013-6.013v-7.817C345.94,253.604,343.248,250.912,339.927,250.912z"/>
	<path style="fill:#333333;" d="M384.215,270.754c3.321,0,6.013-2.693,6.013-6.013v-7.817c0-3.32-2.691-6.013-6.013-6.013
		c-3.322,0-6.013,2.693-6.013,6.013v7.817C378.202,268.063,380.893,270.754,384.215,270.754z"/>
	<path style="fill:#333333;" d="M368.084,275.565v-18.64c0-3.32-2.691-6.013-6.013-6.013c-3.321,0-6.013,2.693-6.013,6.013v18.64
		c0,3.32,2.691,6.013,6.013,6.013C365.392,281.577,368.084,278.886,368.084,275.565z"/>
	<path style="fill:#333333;" d="M360.623,188.981c1.858,0,3.691-0.859,4.868-2.477c1.953-2.685,1.359-6.446-1.328-8.399
		l-13.288-9.664l26.494-19.076c2.694-1.94,3.306-5.698,1.366-8.393c-1.941-2.695-5.699-3.306-8.393-1.366l-29.706,21.389
		l-42.614-30.991c-1.813-1.319-4.216-1.52-6.226-0.516l-38.482,19.241c-2.97,1.485-4.174,5.096-2.688,8.067
		c1.484,2.97,5.095,4.175,8.067,2.689l35.212-17.607l63.185,45.953C358.159,188.607,359.395,188.981,360.623,188.981z"/>
</g>
<g>
</g>
<g>
</g>
<g>
</g>
<g>
</g>
<g>
</g>
<g>
</g>
<g>
</g>
<g>
</g>
<g>
</g>
<g>
</g>
<g>
</g>
<g>
</g>
<g>
</g>
<g>
</g>
<g>
</g>
</svg>
